# xmcd
#
# Track frame offsets:
#	150
#	20390
#	40621
#	63815
#	81658
#	100587
#	119110
#	141080
#
# Disc length: 2123 seconds
#
# Revision: 1
# Processed by: cddbd v1.5PL3 Copyright (c) Steve Scherf et al.
# Submitted via: audiograbber 1.83.01
#
DISCID=65084908
DTITLE=Compilation - Best Kept Secret - Blues Harmonica
DYEAR=1999
DGENRE=Blues
TTITLE0=Tad Robinson - Best Kept Secret
TTITLE1=Mark DuFresne - 13 Weeks
TTITLE2=Mitch Kashmar - Evil Man
TTITLE3=Tad Robinson - Highway Is My Life
TTITLE4=Tad Robinson - Apartment Blues
TTITLE5=Mark DuFresne - Reach out
TTITLE6=Steve Bailey - 9 Below Zero
TTITLE7=Mitch Kashmar - It's Too Late Brother
EXTD=Tad Robinson - Chicago\nMitch Kashmar - Los Angeles\nMark Dufresne - Kansa
EXTD=s City\nSteve Bailey - Seattle\nProduced by Jack Lavin (Powder Blues]\nRec
EXTD=orded live at the Yale Hotel, Vancouver, BC, Canada
EXTT0=
EXTT1=
EXTT2=
EXTT3=
EXTT4=
EXTT5=
EXTT6=
EXTT7=
PLAYORDER=
